<?xml version="1.0" encoding="UTF-8" standalone="no"?>
<svg
   enable-background="new 0 0 32 32"
   version="1.1"
   viewBox="0 0 924 660"
   xml:space="preserve"
   id="svg34"
   sodipodi:docname="ab_nav.svg"
   inkscape:version="1.1.1 (eb90963e84, 2021-10-02)"
   xmlns:inkscape="http://www.inkscape.org/namespaces/inkscape"
   xmlns:sodipodi="http://sodipodi.sourceforge.net/DTD/sodipodi-0.dtd"
   xmlns="http://www.w3.org/2000/svg"
   xmlns:svg="http://www.w3.org/2000/svg"><sodipodi:namedview
     id="namedview36"
     pagecolor="#505050"
     bordercolor="#ffffff"
     borderopacity="1"
     inkscape:pageshadow="0"
     inkscape:pageopacity="0"
     inkscape:pagecheckerboard="1"
     showgrid="false"
     inkscape:zoom="1.2787879"
     inkscape:cx="461.7654"
     inkscape:cy="330.391"
     inkscape:window-width="1864"
     inkscape:window-height="1016"
     inkscape:window-x="56"
     inkscape:window-y="27"
     inkscape:window-maximized="1"
     inkscape:current-layer="g32" /><defs
     id="defs5"><marker
       id="Arrow2Mend"
       overflow="visible"
       orient="auto"><path
         transform="scale(-.6)"
         d="m8.7186 4.0337-10.926-4.0177 10.926-4.0177c-1.7455 2.3721-1.7354 5.6175-6e-7 8.0354z"
         fill="context-stroke"
         fill-rule="evenodd"
         stroke="context-stroke"
         stroke-linejoin="round"
         stroke-width=".625"
         id="path2" /></marker></defs><g
     transform="matrix(5.9928 0 0 5.9928 182.97 80)"
     id="g32"><path
       d="m15.403 78.285c14.7 0.70251 22.461-1.5194 26.405-5.4052 6.0696-5.98 3.0989-15.901 2.4667-25.167-0.45876-6.7244 0.31411-13.104 6.6676-17.383 4.9148-3.3099 13.169-5.3625 26.776-5.345"
       fill="none"
       marker-mid="url(#Arrow2Mend)"
       stroke="#bfc9a9"
       stroke-dasharray="8, 2, 1, 2"
       id="path7" /><g
       id="Maps_1_"
       transform="translate(-1 52.433)"><path
         d="m16 1c-5.51 0-10 4.5-10 10.04 0 5.25 8.34 13.72 9.29 14.67 0.2 0.19 0.45 0.29 0.71 0.29s0.51-0.1 0.71-0.29c0.95-0.95 9.29-9.42 9.29-14.67 0-5.54-4.49-10.04-10-10.04z"
         fill="#3f51b5"
         id="path9"
         style="fill:#1839b5;fill-opacity:1" /><path
         d="m20 11.04c0 2.2-1.79 4-4 4s-4-1.8-4-4c0-2.21 1.79-4 4-4s4 1.79 4 4z"
         fill="#2197f3"
         id="path11" /><path
         d="m 16,31 c -0.2354,0 -0.4595,-5e-4 -0.6943,-0.0107 C 8.21,30.8652 1,28.5957 1,24.5 1,22.4194 2.9492,20.6128 6.4893,19.4126 7.0118,19.2378 7.5796,19.5156 7.7574,20.0391 7.9346,20.562 7.6544,21.1294 7.1309,21.3072 4.583,22.1709 3,23.394 3,24.5 3,26.5215 8.0791,28.8623 15.3677,28.9902 15.5986,29 15.7925,29.001 16,29 c 0.208,0 0.4009,0 0.6055,-0.0088 C 23.9209,28.8623 29,26.5215 29,24.5 29,23.394 27.417,22.1709 24.8691,21.3071 24.3457,21.1294 24.0654,20.562 24.2426,20.039 24.4203,19.5156 24.9877,19.2368 25.5107,19.4125 29.0508,20.6128 31,22.4194 31,24.5 31,28.5957 23.79,30.8652 16.6675,30.9902 16.4595,30.9995 16.2354,31 16,31 Z"
         fill="#2197f3"
         id="path13" /></g><g
       transform="translate(62.122 -1)"
       id="g22"><path
         d="m16 1c-5.51 0-10 4.5-10 10.04 0 5.25 8.34 13.72 9.29 14.67 0.2 0.19 0.45 0.29 0.71 0.29s0.51-0.1 0.71-0.29c0.95-0.95 9.29-9.42 9.29-14.67 0-5.54-4.49-10.04-10-10.04z"
         fill="#a6566e"
         id="path16"
         style="fill:#e53631;fill-opacity:1" /><path
         d="m20 11.04c0 2.2-1.79 4-4 4s-4-1.8-4-4c0-2.21 1.79-4 4-4s4 1.79 4 4z"
         fill="#ae979d"
         id="path18"
         style="fill:#e9d866;fill-opacity:1" /><path
         d="m 16,31 c -0.2354,0 -0.4595,-5e-4 -0.6943,-0.0107 C 8.21,30.8652 1,28.5957 1,24.5 1,22.4194 2.9492,20.6128 6.4893,19.4126 7.0118,19.2378 7.5796,19.5156 7.7574,20.0391 7.9346,20.562 7.6544,21.1294 7.1309,21.3072 4.583,22.1709 3,23.394 3,24.5 3,26.5215 8.0791,28.8623 15.3677,28.9902 15.5986,29 15.7925,29.001 16,29 c 0.208,0 0.4009,0 0.6055,-0.0088 C 23.9209,28.8623 29,26.5215 29,24.5 29,23.394 27.417,22.1709 24.8691,21.3071 24.3457,21.1294 24.0654,20.562 24.2426,20.039 24.4203,19.5156 24.9877,19.2368 25.5107,19.4125 29.0508,20.6128 31,22.4194 31,24.5 31,28.5957 23.79,30.8652 16.6675,30.9902 16.4595,30.9995 16.2354,31 16,31 Z"
         fill="#e99883"
         id="path20"
         style="fill:#e9d866;fill-opacity:1" /></g><text
       x="75.434166"
       y="12.539999"
       fill="#000000"
       font-family="sans-serif"
       font-size="6.8587px"
       font-weight="bold"
       stroke-width=".17147"
       style="font-variant-caps:normal;font-variant-east-asian:normal;font-variant-ligatures:normal;font-variant-numeric:normal;line-height:1.25"
       xml:space="preserve"
       id="text26"><tspan
         x="75.434166"
         y="12.539999"
         font-family="sans-serif"
         font-size="6.8587px"
         font-weight="bold"
         stroke-width=".17147"
         style="font-variant-caps:normal;font-variant-east-asian:normal;font-variant-ligatures:normal;font-variant-numeric:normal"
         id="tspan24">B</tspan></text><text
       x="12.345949"
       y="65.973114"
       fill="#000000"
       font-family="sans-serif"
       font-size="6.8587px"
       font-weight="bold"
       stroke-width=".17147"
       style="font-variant-caps:normal;font-variant-east-asian:normal;font-variant-ligatures:normal;font-variant-numeric:normal;line-height:1.25"
       xml:space="preserve"
       id="text30"><tspan
         x="12.345949"
         y="65.973114"
         font-family="sans-serif"
         font-size="6.8587px"
         font-weight="bold"
         stroke-width=".17147"
         style="font-variant-caps:normal;font-variant-east-asian:normal;font-variant-ligatures:normal;font-variant-numeric:normal"
         id="tspan28">A</tspan></text></g></svg>
