<?xml version="1.0" encoding="UTF-8"?>
<svg enable-background="new 0 0 32 32" version="1.1" viewBox="0 0 924 660" xml:space="preserve" xmlns="http://www.w3.org/2000/svg"><defs><marker id="Arrow2Mend" overflow="visible" orient="auto"><path transform="scale(-.6)" d="m8.7186 4.0337-10.926-4.0177 10.926-4.0177c-1.7455 2.3721-1.7354 5.6175 0 8.0354z" fill="context-stroke" fill-rule="evenodd" stroke="context-stroke" stroke-linejoin="round" stroke-width=".625"/></marker></defs><g transform="translate(535.15 258.43)"><g transform="matrix(1.151 0 0 1.1153 -180.97 -156.74)"><path d="m-57.689 384.26c31.772-30.174 49.236-60.964 60.078-76.031 21.959-30.518 27.12-35.008 24.843-73.392-2.0133-33.934 8.6989-63.701 8.6989-63.701 16.526-38.731 35.213-53.805 64.535-59.217 42.264-7.8013 56.469-22.257 71.487-19.495 96.701 17.789 114.84 71.056 48.165 144.08-41.319 45.251-50.005 48.275-71.78 65.652-24.948 19.909-28.998 24.589-103.37 64.342-31.821 17.007-130.82 70.554-102.65 17.763" fill="none" marker-mid="url(#Arrow2Mend)" stroke="#bfc9a9" stroke-dasharray="39.2215, 9.80446, 4.9031, 9.80446" stroke-width="4.9031"/><g id="Maps_1_" transform="matrix(4.9027,0,0,4.9027,-139.5,257.06)"><path d="m16 1c-5.51 0-10 4.5-10 10.04 0 5.25 8.34 13.72 9.29 14.67 0.2 0.19 0.45 0.29 0.71 0.29s0.51-0.1 0.71-0.29c0.95-0.95 9.29-9.42 9.29-14.67 0-5.54-4.49-10.04-10-10.04z" fill="#3f51b5"/><path d="m20 11.04c0 2.2-1.79 4-4 4s-4-1.8-4-4c0-2.21 1.79-4 4-4s4 1.79 4 4z" fill="#2197f3"/><path d="m 16,31 c -0.2354,0 -0.4595,-5e-4 -0.6943,-0.0107 C 8.21,30.8652 1,28.5957 1,24.5 1,22.4194 2.9492,20.6128 6.4893,19.4126 7.0118,19.2378 7.5796,19.5156 7.7574,20.0391 7.9346,20.562 7.6544,21.1294 7.1309,21.3072 4.583,22.1709 3,23.394 3,24.5 3,26.5215 8.0791,28.8623 15.3677,28.9902 15.5986,29 15.7925,29.001 16,29 c 0.208,0 0.4009,0 0.6055,-0.0088 C 23.9209,28.8623 29,26.5215 29,24.5 29,23.394 27.417,22.1709 24.8691,21.3071 24.3457,21.1294 24.0654,20.562 24.2426,20.039 24.4203,19.5156 24.9877,19.2368 25.5107,19.4125 29.0508,20.6128 31,22.4194 31,24.5 31,28.5957 23.79,30.8652 16.6675,30.9902 16.4595,30.9995 16.2354,31 16,31 Z" fill="#2197f3"/></g><g transform="matrix(4.9027,0,0,4.9027,169.96,-4.9027)"><path d="m16 1c-5.51 0-10 4.5-10 10.04 0 5.25 8.34 13.72 9.29 14.67 0.2 0.19 0.45 0.29 0.71 0.29s0.51-0.1 0.71-0.29c0.95-0.95 9.29-9.42 9.29-14.67 0-5.54-4.49-10.04-10-10.04z" fill="#a6566e"/><path d="m20 11.04c0 2.2-1.79 4-4 4s-4-1.8-4-4c0-2.21 1.79-4 4-4s4 1.79 4 4z" fill="#caa49d"/><path d="m 16,31 c -0.2354,0 -0.4595,-5e-4 -0.6943,-0.0107 C 8.21,30.8652 1,28.5957 1,24.5 1,22.4194 2.9492,20.6128 6.4893,19.4126 7.0118,19.2378 7.5796,19.5156 7.7574,20.0391 7.9346,20.562 7.6544,21.1294 7.1309,21.3072 4.583,22.1709 3,23.394 3,24.5 3,26.5215 8.0791,28.8623 15.3677,28.9902 15.5986,29 15.7925,29.001 16,29 c 0.208,0 0.4009,0 0.6055,-0.0088 C 23.9209,28.8623 29,26.5215 29,24.5 29,23.394 27.417,22.1709 24.8691,21.3071 24.3457,21.1294 24.0654,20.562 24.2426,20.039 24.4203,19.5156 24.9877,19.2368 25.5107,19.4125 29.0508,20.6128 31,22.4194 31,24.5 31,28.5957 23.79,30.8652 16.6675,30.9902 16.4595,30.9995 16.2354,31 16,31 Z" fill="#caa49d"/></g><text x="235.22813" y="61.479439" fill="#000000" font-family="sans-serif" font-size="33.625px" font-weight="bold" stroke-width=".84064" style="font-variant-caps:normal;font-variant-east-asian:normal;font-variant-ligatures:normal;font-variant-numeric:normal;line-height:1.25" xml:space="preserve"><tspan x="235.22813" y="61.479439" stroke-width=".84064">B</tspan></text><text x="-74.071815" y="323.444" fill="#000000" font-family="sans-serif" font-size="33.625px" font-weight="bold" stroke-width=".84064" style="font-variant-caps:normal;font-variant-east-asian:normal;font-variant-ligatures:normal;font-variant-numeric:normal;line-height:1.25" xml:space="preserve"><tspan x="-74.071815" y="323.444" font-family="sans-serif" font-size="33.625px" font-weight="bold" stroke-width=".84064" style="font-variant-caps:normal;font-variant-east-asian:normal;font-variant-ligatures:normal;font-variant-numeric:normal">A</tspan></text></g></g></svg>
