<?xml version="1.0" encoding="UTF-8"?>
<svg enable-background="new 0 0 32 32" version="1.1" viewBox="0 0 924 660" xml:space="preserve" xmlns="http://www.w3.org/2000/svg"><defs><marker id="Arrow2Mend" overflow="visible" orient="auto"><path transform="scale(-.6)" d="m8.7186 4.0337-10.926-4.0177 10.926-4.0177c-1.7455 2.3721-1.7354 5.6175-6e-7 8.0354z" fill="context-stroke" fill-rule="evenodd" stroke="context-stroke" stroke-linejoin="round" stroke-width=".625"/></marker></defs><g transform="translate(463.68 273.93)"><g transform="matrix(1.1234 0 0 1.1234 .20996 -6.916)"><path d="m-162.33 250.93c90.267-12.726 199.72-37.82 177.43-69.283-22.148-31.267-65.922-50.791-65.922-50.791-33.717-20.565-120.13-26.672-123.31-58.818-0.90466-9.1289-1.0491-19.305 9.7431-33.765 48.731-65.297 79.058-27.336 86.796-23.501 42.443 21.035 90.154 73.898 134.7 51.998 28.094-13.812 29.522-104.97 107.7-102.45" fill="none" marker-mid="url(#Arrow2Mend)" stroke="#bfc9a9" stroke-dasharray="42.677, 10.6693, 5.33461, 10.6693" stroke-width="5.3346"/><g transform="matrix(5.3346,0,0,5.3346,81.328,-171.81)"><path d="m16 1c-5.51 0-10 4.5-10 10.04 0 5.25 8.34 13.72 9.29 14.67 0.2 0.19 0.45 0.29 0.71 0.29s0.51-0.1 0.71-0.29c0.95-0.95 9.29-9.42 9.29-14.67 0-5.54-4.49-10.04-10-10.04z" fill="#a6566e"/><path d="m20 11.04c0 2.2-1.79 4-4 4s-4-1.8-4-4c0-2.21 1.79-4 4-4s4 1.79 4 4z" fill="#caa49d"/><path d="m 16,31 c -0.2354,0 -0.4595,-5e-4 -0.6943,-0.0107 C 8.21,30.8652 1,28.5957 1,24.5 1,22.4194 2.9492,20.6128 6.4893,19.4126 7.0118,19.2378 7.5796,19.5156 7.7574,20.0391 7.9346,20.562 7.6544,21.1294 7.1309,21.3072 4.583,22.1709 3,23.394 3,24.5 3,26.5215 8.0791,28.8623 15.3677,28.9902 15.5986,29 15.7925,29.001 16,29 c 0.208,0 0.4009,0 0.6055,-0.0088 C 23.9209,28.8623 29,26.5215 29,24.5 29,23.394 27.417,22.1709 24.8691,21.3071 24.3457,21.1294 24.0654,20.562 24.2426,20.039 24.4203,19.5156 24.9877,19.2368 25.5107,19.4125 29.0508,20.6128 31,22.4194 31,24.5 31,28.5957 23.79,30.8652 16.6675,30.9902 16.4595,30.9995 16.2354,31 16,31 Z" fill="#caa49d"/></g><text x="152.34499" y="-99.57917" fill="#000000" font-family="sans-serif" font-size="36.588px" font-weight="bold" stroke-width=".91471" style="font-variant-caps:normal;font-variant-east-asian:normal;font-variant-ligatures:normal;font-variant-numeric:normal;line-height:1.25" xml:space="preserve"><tspan x="152.34499" y="-99.57917" stroke-width=".91471">Z</tspan></text><g id="Maps_1_" transform="matrix(5.3346,0,0,5.3346,-255.4,113.24)"><path d="m16 1c-5.51 0-10 4.5-10 10.04 0 5.25 8.34 13.72 9.29 14.67 0.2 0.19 0.45 0.29 0.71 0.29s0.51-0.1 0.71-0.29c0.95-0.95 9.29-9.42 9.29-14.67 0-5.54-4.49-10.04-10-10.04z" fill="#3f51b5"/><path d="m20 11.04c0 2.2-1.79 4-4 4s-4-1.8-4-4c0-2.21 1.79-4 4-4s4 1.79 4 4z" fill="#2197f3"/><path d="m 16,31 c -0.2354,0 -0.4595,-5e-4 -0.6943,-0.0107 C 8.21,30.8652 1,28.5957 1,24.5 1,22.4194 2.9492,20.6128 6.4893,19.4126 7.0118,19.2378 7.5796,19.5156 7.7574,20.0391 7.9346,20.562 7.6544,21.1294 7.1309,21.3072 4.583,22.1709 3,23.394 3,24.5 3,26.5215 8.0791,28.8623 15.3677,28.9902 15.5986,29 15.7925,29.001 16,29 c 0.208,0 0.4009,0 0.6055,-0.0088 C 23.9209,28.8623 29,26.5215 29,24.5 29,23.394 27.417,22.1709 24.8691,21.3071 24.3457,21.1294 24.0654,20.562 24.2426,20.039 24.4203,19.5156 24.9877,19.2368 25.5107,19.4125 29.0508,20.6128 31,22.4194 31,24.5 31,28.5957 23.79,30.8652 16.6675,30.9902 16.4595,30.9995 16.2354,31 16,31 Z" fill="#2197f3"/></g><text x="-184.20692" y="185.46638" fill="#000000" font-family="sans-serif" font-size="36.588px" font-weight="bold" stroke-width=".91471" style="font-variant-caps:normal;font-variant-east-asian:normal;font-variant-ligatures:normal;font-variant-numeric:normal;line-height:1.25" xml:space="preserve"><tspan x="-184.20692" y="185.46638" font-family="sans-serif" font-size="36.588px" font-weight="bold" stroke-width=".91471" style="font-variant-caps:normal;font-variant-east-asian:normal;font-variant-ligatures:normal;font-variant-numeric:normal">A</tspan></text><g transform="matrix(.70569 0 0 .70569 -100.16 30.91)"><g transform="matrix(5.3346,0,0,5.3346,-177.01,-131.02)"><path d="m16 1c-5.51 0-10 4.5-10 10.04 0 5.25 8.34 13.72 9.29 14.67 0.2 0.19 0.45 0.29 0.71 0.29s0.51-0.1 0.71-0.29c0.95-0.95 9.29-9.42 9.29-14.67 0-5.54-4.49-10.04-10-10.04z" fill="#606f6e"/><path d="m20 11.04c0 2.2-1.79 4-4 4s-4-1.8-4-4c0-2.21 1.79-4 4-4s4 1.79 4 4z" fill="#aebc9d"/><path d="m 16,31 c -0.2354,0 -0.4595,-5e-4 -0.6943,-0.0107 C 8.21,30.8652 1,28.5957 1,24.5 1,22.4194 2.9492,20.6128 6.4893,19.4126 7.0118,19.2378 7.5796,19.5156 7.7574,20.0391 7.9346,20.562 7.6544,21.1294 7.1309,21.3072 4.583,22.1709 3,23.394 3,24.5 3,26.5215 8.0791,28.8623 15.3677,28.9902 15.5986,29 15.7925,29.001 16,29 c 0.208,0 0.4009,0 0.6055,-0.0088 C 23.9209,28.8623 29,26.5215 29,24.5 29,23.394 27.417,22.1709 24.8691,21.3071 24.3457,21.1294 24.0654,20.562 24.2426,20.039 24.4203,19.5156 24.9877,19.2368 25.5107,19.4125 29.0508,20.6128 31,22.4194 31,24.5 31,28.5957 23.79,30.8652 16.6675,30.9902 16.4595,30.9995 16.2354,31 16,31 Z" fill="#aebc9d"/></g><text x="-105.99733" y="-58.791756" fill="#000000" font-family="sans-serif" font-size="36.588px" font-weight="bold" stroke-width=".91471" style="font-variant-caps:normal;font-variant-east-asian:normal;font-variant-ligatures:normal;font-variant-numeric:normal;line-height:1.25" xml:space="preserve"><tspan x="-105.99733" y="-58.791756" font-family="sans-serif" font-size="36.588px" font-weight="bold" stroke-width=".91471" style="font-variant-caps:normal;font-variant-east-asian:normal;font-variant-ligatures:normal;font-variant-numeric:normal"/></text></g><g transform="matrix(.70569 0 0 .70569 90.772 66.047)"><g transform="matrix(5.3346,0,0,5.3346,-177.01,-131.02)"><path d="m16 1c-5.51 0-10 4.5-10 10.04 0 5.25 8.34 13.72 9.29 14.67 0.2 0.19 0.45 0.29 0.71 0.29s0.51-0.1 0.71-0.29c0.95-0.95 9.29-9.42 9.29-14.67 0-5.54-4.49-10.04-10-10.04z" fill="#606f6e"/><path d="m20 11.04c0 2.2-1.79 4-4 4s-4-1.8-4-4c0-2.21 1.79-4 4-4s4 1.79 4 4z" fill="#aebc9d"/><path d="m 16,31 c -0.2354,0 -0.4595,-5e-4 -0.6943,-0.0107 C 8.21,30.8652 1,28.5957 1,24.5 1,22.4194 2.9492,20.6128 6.4893,19.4126 7.0118,19.2378 7.5796,19.5156 7.7574,20.0391 7.9346,20.562 7.6544,21.1294 7.1309,21.3072 4.583,22.1709 3,23.394 3,24.5 3,26.5215 8.0791,28.8623 15.3677,28.9902 15.5986,29 15.7925,29.001 16,29 c 0.208,0 0.4009,0 0.6055,-0.0088 C 23.9209,28.8623 29,26.5215 29,24.5 29,23.394 27.417,22.1709 24.8691,21.3071 24.3457,21.1294 24.0654,20.562 24.2426,20.039 24.4203,19.5156 24.9877,19.2368 25.5107,19.4125 29.0508,20.6128 31,22.4194 31,24.5 31,28.5957 23.79,30.8652 16.6675,30.9902 16.4595,30.9995 16.2354,31 16,31 Z" fill="#aebc9d"/></g><text x="-105.99733" y="-58.791756" fill="#000000" font-family="sans-serif" font-size="36.588px" font-weight="bold" stroke-width=".91471" style="font-variant-caps:normal;font-variant-east-asian:normal;font-variant-ligatures:normal;font-variant-numeric:normal;line-height:1.25" xml:space="preserve"><tspan x="-105.99733" y="-58.791756" font-family="sans-serif" font-size="36.588px" font-weight="bold" stroke-width=".91471" style="font-variant-caps:normal;font-variant-east-asian:normal;font-variant-ligatures:normal;font-variant-numeric:normal"/></text></g></g></g></svg>
